<svg xmlns="http://www.w3.org/2000/svg" width="12" height="12.842" viewBox="0 0 12 12.842">
    <path data-name="Rectangle 1020" transform="translate(0 .842)" style="fill:none" d="M0 0h12v12H0z"/>
    <path data-name="Path 12274" d="M10.5 1H9V0H8v1H4V0H3v1H1.5A1.5 1.5 0 0 0 0 2.5V12h12V2.5A1.5 1.5 0 0 0 10.5 1zM1 2.5a.5.5 0 0 1 .5-.5h9a.5.5 0 0 1 .5.5V4H1zM1 11V5h10v6z" style="fill:#707070"/>
    <path data-name="Rectangle 1022" transform="translate(7.5 6.5)" style="fill:#707070" d="M0 0h1v1H0z"/>
    <path data-name="Rectangle 1023" transform="translate(5.5 6.5)" style="fill:#707070" d="M0 0h1v1H0z"/>
    <path data-name="Rectangle 1024" transform="translate(3.5 6.5)" style="fill:#707070" d="M0 0h1v1H0z"/>
    <path data-name="Rectangle 1025" transform="translate(7.5 8.5)" style="fill:#707070" d="M0 0h1v1H0z"/>
    <path data-name="Rectangle 1026" transform="translate(5.5 8.5)" style="fill:#707070" d="M0 0h1v1H0z"/>
    <path data-name="Rectangle 1027" transform="translate(3.5 8.5)" style="fill:#707070" d="M0 0h1v1H0z"/>
</svg>
