<svg xmlns="http://www.w3.org/2000/svg" width="12" height="13" viewBox="0 0 12 13">
    <path data-name="Rectangle 1021" style="fill:none" d="M0 0h12v13H0z"/>
    <path data-name="Path 12275" d="M6 0a6 6 0 1 0 6 6 6 6 0 0 0-6-6zm0 11a5 5 0 1 1 5-5 5 5 0 0 1-5 5z" transform="translate(0 .424)" style="fill:#707070"/>
    <path data-name="Path 12276" d="M5.4 2.5a.5.5 0 0 0-.5.5v2.163L3.218 6.219a.5.5 0 1 0 .531.85l1.92-1.2a.5.5 0 0 0 .231-.43V3a.5.5 0 0 0-.5-.5z" transform="translate(.597 .924)" style="fill:#707070"/>
</svg>
