<svg xmlns="http://www.w3.org/2000/svg" width="24" height="24" viewBox="0 0 24 24">
    <path data-name="Rectangle 1011" style="fill:none" d="M0 0h24v24H0z"/>
    <path data-name="Path 11971" d="M75.409 25.943v9.915a1.984 1.984 0 0 1-1.521 2.016 2.9 2.9 0 0 1-.632.064H57.924A2.008 2.008 0 0 1 55.78 35.8V16.073a2.008 2.008 0 0 1 2.126-2.135h15.386a2 2 0 0 1 2.117 2.135zm-9.824 6.543h5.388A1.092 1.092 0 1 0 71 30.3c-3.611-.009-7.221 0-10.832 0a1.073 1.073 0 0 0-.825.339 1.091 1.091 0 0 0 .825 1.842zm.009-7.633h-5.287a1.652 1.652 0 0 0-.477.046 1.073 1.073 0 0 0-.77 1.173 1.092 1.092 0 0 0 1.145.944h10.778a.889.889 0 0 0 .156-.009 1.084 1.084 0 0 0-.147-2.163c-1.805.008-3.601.008-5.398.008zm-2.74-3.271h2.584a2 2 0 0 0 .33-.027 1.084 1.084 0 0 0-.137-2.153 563.657 563.657 0 0 0-5.517 0 1.067 1.067 0 0 0-1.008.77 1.092 1.092 0 0 0 1.1 1.411c.871.007 1.76-.002 2.649-.002z" transform="translate(-53.594 -13.938)" style="fill:#afafaf"/>
</svg>
