<svg xmlns="http://www.w3.org/2000/svg" width="18" height="18" viewBox="0 0 18 18">
    <path data-name="Rectangle 1248" style="fill:none" d="M0 0h18v18H0z"/>
    <path data-name="Path 12686" d="M7.889 1.834A1.763 1.763 0 0 0 6.05 0H1.833A1.752 1.752 0 0 0 0 1.82V6a1.753 1.753 0 0 0 1.827 1.826H6.062A1.755 1.755 0 0 0 7.889 6V1.837zm-6.412.023c0-.287.1-.384.391-.384h4.144c.307 0 .392.085.392.4v4.104c0 .287-.089.374-.378.375H1.864c-.29 0-.388-.1-.388-.387V1.856z" transform="translate(0 .003)" style="fill:#343f53"/>
    <path data-name="Path 12687" d="M18 11.984a1.746 1.746 0 0 0-1.815-1.816h-4.252A1.755 1.755 0 0 0 10.111 12v4.146a1.77 1.77 0 0 0 1.847 1.843h4.217A1.747 1.747 0 0 0 18 16.183c.005-1.323.005-2.7 0-4.2zm-6.4.044c0-.3.087-.384.386-.384h4.145c.3 0 .4.092.4.395v4.092c0 .3-.093.394-.4.395H11.98c-.3 0-.385-.087-.385-.385q0-2.058.005-4.113z" transform="translate(0 .003)" style="fill:#343f53"/>
    <path data-name="Path 12688" d="M7.9 12.009a1.75 1.75 0 0 0-1.84-1.842H1.862a1.751 1.751 0 0 0-1.844 1.848v4.127a1.759 1.759 0 0 0 1.857 1.851h4.181A1.749 1.749 0 0 0 7.9 16.154v-4.146zm-1.469 4.123c0 .29-.1.388-.387.388H1.9c-.312 0-.4-.084-.4-.391V12.02c0-.287.091-.378.373-.379h4.18c.277 0 .375.1.375.381v4.109z" transform="translate(0 .003)" style="fill:#343f53"/>
    <path data-name="Path 12689" d="M16.864 1.158A3.827 3.827 0 0 0 14.146 0h-.016a3.91 3.91 0 0 0-2.83 6.66 3.849 3.849 0 0 0 2.734 1.165h.025A3.922 3.922 0 0 0 18 3.914a3.864 3.864 0 0 0-1.136-2.756zM16.525 3.9A2.446 2.446 0 0 1 14.1 6.35h-.018a2.44 2.44 0 0 1-2.424-2.436 2.4 2.4 0 0 1 .7-1.711 2.463 2.463 0 0 1 1.756-.728v-.094.094A2.458 2.458 0 0 1 16.525 3.9z" transform="translate(0 .003)" style="fill:#343f53"/>
</svg>
