<svg xmlns="http://www.w3.org/2000/svg" width="18" height="18" viewBox="0 0 18 18">
  <g id="chenge_pwd" transform="translate(98 -529)">
    <rect id="Rectangle_3" data-name="Rectangle 3" width="18" height="18" transform="translate(-98 529)" fill="none"/>
    <path id="Path_2" data-name="Path 2" d="M.825,17.992a.743.743,0,0,1-.817-.815C0,13.958,0,10.729.008,7.512A.74.74,0,0,1,.831,6.7l.52-.005,1.6.008V5.034A4.832,4.832,0,0,1,7.579.014C7.693,0,7.806,0,7.921,0A4.9,4.9,0,0,1,12.7,4.7c.007.3.005.606,0,.925L12.694,6.7,14.3,6.691l.486.005a.761.761,0,0,1,.858.826q.018,4.811,0,9.62a.751.751,0,0,1-.825.85q-3.5.007-7,.008t-7-.008m.686-1.5h12.63V8.2H1.511ZM7.852,1.5a3.284,3.284,0,0,0-1.2.228C5.018,2.351,4.272,3.692,4.442,5.7l.082.97h6.667l.025-1.034c.007-.341.014-.676-.008-1.011A3.4,3.4,0,0,0,7.852,1.5" transform="translate(-96.826 529)" fill="#343f53"/>
    <path id="Path_3" data-name="Path 3" d="M10.044,13.206a.577.577,0,0,1,.138.8.609.609,0,0,1-.466.232.581.581,0,0,1-.339-.105l-1.016-.731v1.249a.577.577,0,0,1-1.154,0V13.333l-1.112.709a.548.548,0,0,1-.307.1.576.576,0,0,1-.317-1.059l1.291-.826-1.238-.9a.565.565,0,0,1-.138-.794.578.578,0,0,1,.8-.137l1.017.73V9.9a.577.577,0,0,1,1.154,0v1.323l1.111-.709a.574.574,0,1,1,.625.963l-1.292.826Z" transform="translate(-96.826 529)" fill="#343f53"/>
  </g>
</svg>
