<svg data-name="Commission Settlement" xmlns="http://www.w3.org/2000/svg" width="18" height="18" viewBox="0 0 18 18">
    <path data-name="Rectangle 1250" style="fill:none" d="M0 0h18v18H0z"/>
    <path data-name="Path 12696" d="M17.939 8.629Q16.3 4.509 14.659.393A.526.526 0 0 0 14.168 0a.753.753 0 0 0-.284.062c-.261.1-.518.206-.779.312l-.327.132-2.03.806L.557 5.368a1.139 1.139 0 0 0-.526.405L0 5.812V15.2l.023.039a.649.649 0 0 0 .6.3H15.022a.882.882 0 0 0 .1 0 .5.5 0 0 0 .46-.444 1.661 1.661 0 0 0 .008-.195v-4.589c0-.086.008-.1.09-.129.584-.226 1.173-.464 1.741-.69L17.6 9.4a.533.533 0 0 0 .339-.771zm-3.381 5.863H1.032V6.521h13.526v7.971zM6.86 5.466l.64-.258c1.36-.541 2.766-1.1 4.145-1.656a.224.224 0 0 1 .066-.019c.012 0 .035.019.055.035a2.772 2.772 0 0 0 1.714.767c.132.012.171.039.206.152.078.238.175.471.269.7.039.093.078.187.113.28zM15.59 9.1V6.126a.572.572 0 0 0-.393-.631.4.4 0 0 1-.035-.078c-.136-.339-.273-.682-.405-1.017l-.195-.491a1.2 1.2 0 0 0-.055-.125l-.047-.113a.519.519 0 0 0-.51-.351H13.743a1.6 1.6 0 0 1-.818-.2 2.891 2.891 0 0 1-.573-.429c-.164-.16-.292-.284-.487-.284a1.066 1.066 0 0 0-.37.1c-.651.257-1.3.518-1.948.775-.319.129-.643.257-.966.386l-.908.362c-1.009.4-2.053.818-3.078 1.231a.96.96 0 0 0-.206.121.866.866 0 0 1-.09.058h-.008a.233.233 0 0 1-.043.023H3.1L13.865 1.18l2.957 7.425-1.232.495z" transform="translate(0 1.234)" style="fill:#343f53"/>
    <path data-name="Path 12697" d="M14.2 9.1a.534.534 0 0 0-.432-.6 1.887 1.887 0 0 1-1.2-1.2.521.521 0 0 0-.568-.424H3.576a.515.515 0 0 0-.557.4 1.9 1.9 0 0 1-1.246 1.236.515.515 0 0 0-.393.545V11.955a.536.536 0 0 0 .386.538 1.9 1.9 0 0 1 1.262 1.262.515.515 0 0 0 .53.382h8.425a.512.512 0 0 0 .58-.409 1.861 1.861 0 0 1 1.215-1.223.534.534 0 0 0 .421-.592V9.096zm-1.017.319v2.178a.156.156 0 0 1 0 .043.174.174 0 0 1-.039.023 2.848 2.848 0 0 0-1.414 1.41c-.019.047-.023.047-.082.047H3.931c-.047 0-.051 0-.078-.055a2.842 2.842 0 0 0-1.383-1.386c-.055-.027-.058-.031-.058-.093V9.428c0-.055 0-.058.051-.082a2.849 2.849 0 0 0 1.4-1.4.08.08 0 0 1 .079-.046H11.629c.086 0 .09.008.117.066a2.834 2.834 0 0 0 1.391 1.387.064.064 0 0 1 .051.066z" transform="translate(0 1.234)" style="fill:#343f53"/>
    <path data-name="Path 12698" d="M9.392 8.921a2.263 2.263 0 0 0-1.609-.666h-.007a2.25 2.25 0 0 0 .019 4.5H7.8a2.248 2.248 0 0 0 1.592-3.834zM6.572 10.5a1.224 1.224 0 0 1 1.219-1.217 1.2 1.2 0 0 1 .857.355 1.221 1.221 0 0 1 .358.877 1.2 1.2 0 0 1-1.219 1.2A1.223 1.223 0 0 1 6.572 10.5z" transform="translate(0 1.234)" style="fill:#343f53"/>
    <path data-name="Path 12699" d="M4.511 10.495a.536.536 0 1 1-.553-.53.556.556 0 0 1 .553.53zm-.545.164a.149.149 0 0 0 .164-.152.135.135 0 0 0-.144-.152.143.143 0 0 0-.16.156.137.137 0 0 0 .14.148z" transform="translate(0 1.234)" style="fill:#343f53"/>
    <path data-name="Path 12700" d="M11.6 9.969a.534.534 0 1 1-.526.53.546.546 0 0 1 .526-.53zm.16.541c0-.1-.047-.152-.144-.156a.138.138 0 0 0-.16.14.152.152 0 1 0 .3.016z" transform="translate(0 1.234)" style="fill:#343f53"/>
</svg>
