<svg xmlns="http://www.w3.org/2000/svg" width="18" height="18" viewBox="0 0 18 18">
  <g id="contact" transform="translate(-479 -11504)">
    <rect id="Rectangle_17654" data-name="Rectangle 17654" width="18" height="18" transform="translate(479 11504)" fill="none"/>
    <path id="phone-call" d="M9.776.751A.751.751,0,0,1,10.527,0a7.52,7.52,0,0,1,7.512,7.512.751.751,0,1,1-1.5,0,6.017,6.017,0,0,0-6.01-6.01A.751.751,0,0,1,9.776.751Zm.751,3.756a3,3,0,0,1,3,3,.751.751,0,0,0,1.5,0A4.512,4.512,0,0,0,10.527,3a.751.751,0,0,0,0,1.5Zm6.831,8.067a2.329,2.329,0,0,1,0,3.289l-.684.788C10.522,22.542-4.45,7.573,1.349,1.4L2.213.65A2.315,2.315,0,0,1,5.464.68C5.487.7,6.879,2.512,6.879,2.512a2.329,2.329,0,0,1-.005,3.217L6,6.822a9.6,9.6,0,0,0,5.207,5.217l1.1-.875a2.329,2.329,0,0,1,3.216,0S17.334,12.551,17.358,12.574Zm-1.034,1.092s-1.8-1.383-1.821-1.406a.826.826,0,0,0-1.164,0c-.02.021-1.535,1.228-1.535,1.228a.751.751,0,0,1-.735.114A11.275,11.275,0,0,1,4.442,6.986a.751.751,0,0,1,.109-.751S5.758,4.719,5.778,4.7a.826.826,0,0,0,0-1.164c-.023-.023-1.406-1.822-1.406-1.822a.826.826,0,0,0-1.134.029l-.864.751c-4.238,5.1,8.736,17.351,13.2,13.131l.684-.789a.842.842,0,0,0,.064-1.17Z" transform="translate(478.961 11504.002)" fill="#343f53"/>
  </g>
</svg>
