<svg xmlns="http://www.w3.org/2000/svg" width="18" height="18" viewBox="0 0 18 18">
    <path data-name="Rectangle 1032" style="fill:none" d="M0 0h18v18H0z"/>
    <path data-name="Path 12293" d="m2.939 2.974 3.494.033L8.777.492l2.483 2.525 3.3-.063.139 3.5L17.155 8.8l-2.445 2.508.13 3.348-3.576.066-2.437 2.506-2.393-2.509-3.494.239.06-3.677L.484 8.84 3.14 6.161z" transform="translate(.18 .141)" style="stroke-width:.681px;stroke:#343f53;stroke-miterlimit:10;fill:none"/>
    <path data-name="Path 12294" d="M7 2.6v11.3a5.757 5.757 0 0 0 4.908-5.769A5.753 5.753 0 0 0 7 2.6z" transform="translate(2.042 .742)" style="fill:#343f53;stroke-width:.031px;stroke:#343f53;stroke-miterlimit:10"/>
</svg>
