<svg xmlns="http://www.w3.org/2000/svg" width="12" height="12" viewBox="0 0 12 12">
    <path data-name="Rectangle 1264" style="fill:none" d="M0 0h12v12H0z"/>
    <path data-name="Path 12713" d="m2.37 7.671 2.33-.008 5.082-5.032a1.059 1.059 0 0 0 0-1.495L8.943.3a1.079 1.079 0 0 0-1.491 0L2.37 5.334zM8.2 1.045l.839.835-.839.835-.843-.835zM3.426 5.772l3.183-3.153.839.839-3.183 3.149h-.839z" transform="translate(.692 .879)" style="fill:#343f53"/>
    <path data-name="Path 12714" d="M1.256 9.862h7.389A1.056 1.056 0 0 0 9.7 8.805V4.23L8.645 5.286v3.519H1.256V1.416H4.87L5.926.36h-4.67A1.056 1.056 0 0 0 .2 1.416v7.389a1.056 1.056 0 0 0 1.056 1.057z" transform="translate(.75 .869)" style="fill:#343f53"/>
</svg>
