<svg data-name="Layer 2" xmlns="http://www.w3.org/2000/svg" width="19.455" height="19.46" viewBox="0 0 19.455 19.46">
    <path data-name="Path 12378" d="M19.552 2.953a.711.711 0 0 1-.758.468c-1.025-.015-2.05-.005-3.075-.005h-.2a2.852 2.852 0 0 1-5.56 0H.834A.689.689 0 0 1 .256 3.2a.6.6 0 0 1 .276-.967A1.152 1.152 0 0 1 .851 2.2h9.1a2.933 2.933 0 0 1 2.662-2.22A2.892 2.892 0 0 1 15.5 2.2h.2c1.015 0 2.025.01 3.038-.006a.77.77 0 0 1 .809.454zM12.735 1.2a1.613 1.613 0 1 0 1.614 1.613A1.613 1.613 0 0 0 12.735 1.2z" transform="translate(-.099 .02)" style="fill:#fafafa"/>
    <path data-name="Path 12379" d="M12.141 277.766a7.075 7.075 0 0 1-1-.373 2.689 2.689 0 0 1-1.324-1.683 3.027 3.027 0 0 0-.051-.152H.652a1.091 1.091 0 0 1-.352-.048.6.6 0 0 1 .194-1.166h9.038c.177 0 .254-.04.308-.224a2.824 2.824 0 0 1 5.417.035l.051.185h.2c1.025 0 2.05.012 3.075-.006a.723.723 0 0 1 .776.468v.3a.77.77 0 0 1-.809.454c-1.015-.015-2.025-.005-3.037-.005h-.2c-.02.058-.036.1-.048.142a2.741 2.741 0 0 1-1.5 1.789 6.391 6.391 0 0 1-.863.279zm.385-1.211a1.613 1.613 0 1 0-1.6-1.624 1.613 1.613 0 0 0 1.6 1.624z" transform="translate(.096 -258.309)" style="fill:#fafafa"/>
    <path data-name="Path 12380" d="M19.446 139.1a.747.747 0 0 1-.783.461c-2.943-.009-5.886-.005-8.829-.005H9.61a2.852 2.852 0 0 1-5.559 0H.641a.609.609 0 1 1 .02-1.215h3.392a2.839 2.839 0 0 1 5.541 0h.219c2.95 0 5.9 0 8.849-.005a.746.746 0 0 1 .783.461zm-12.624 1.46a1.611 1.611 0 1 0-1.144-.473 1.612 1.612 0 0 0 1.143.47z" transform="translate(.007 -129.212)" style="fill:#fafafa"/>
</svg>
