<svg xmlns="http://www.w3.org/2000/svg" width="18" height="18" viewBox="0 0 18 18">
    <path data-name="Rectangle 1035" style="fill:none" d="M0 0h18v18H0z"/>
    <path data-name="Path 12295" d="M18 8.459v1.055a1.225 1.225 0 0 0-.03.151 8.452 8.452 0 0 1-1.026 3.535 8.87 8.87 0 0 1-6.376 4.625c-.343.066-.693.1-1.041.142H8.473a.923.923 0 0 0-.136-.029 8.483 8.483 0 0 1-3.563-1.026 8.857 8.857 0 0 1-4.632-6.361C.076 10.209.047 9.86 0 9.514V8.459a1.194 1.194 0 0 0 .03-.151 8.316 8.316 0 0 1 1.028-3.54A8.835 8.835 0 0 1 8.623.016a8.367 8.367 0 0 1 4.6 1.038 8.844 8.844 0 0 1 4.636 6.366c.065.344.094.693.141 1.039zm-1.406.519A7.594 7.594 0 1 0 9 16.568a7.589 7.589 0 0 0 7.595-7.59z" transform="translate(0 .015)" style="fill:#343f53"/>
    <path data-name="Path 12296" d="M8.326 9.042c0 .385.005.764 0 1.143a.69.69 0 0 1-.49.659.662.662 0 0 1-.753-.236.871.871 0 0 1-.153-.435c-.017-.578-.011-1.158-.006-1.736a.671.671 0 0 1 .64-.7 1.5 1.5 0 0 0 1.163-.556 1.326 1.326 0 0 0 .156-1.471 1.314 1.314 0 0 0-1.318-.784A1.383 1.383 0 0 0 6.221 6.3a.7.7 0 1 1-1.406-.034 2.813 2.813 0 1 1 3.717 2.707c-.064.02-.132.044-.206.069z" transform="translate(1.376 1.018)" style="fill:#343f53"/>
    <path data-name="Path 12297" d="M7.168 11.4a.872.872 0 1 1 .9-.838.872.872 0 0 1-.9.838z" transform="translate(1.807 2.773)" style="fill:#343f53"/>
</svg>
