<svg xmlns="http://www.w3.org/2000/svg" width="24" height="24" viewBox="0 0 24 24">
    <path data-name="Rectangle 1014" style="fill:none" d="M0 0h24v24H0z"/>
    <path data-name="Path 12269" d="M12 14a3 3 0 0 0-3 3v7.026h6V17a3 3 0 0 0-3-3z" transform="translate(0 -.174)" style="fill:#2560fc"/>
    <path data-name="Path 12270" d="M13.338.833a2 2 0 0 0-2.676 0L0 10.429v10.4a3.2 3.2 0 0 0 3.2 3.2H7V17a5 5 0 0 1 10 0v7.026h3.8a3.2 3.2 0 0 0 3.2-3.2v-10.4z" transform="translate(0 -.174)" style="fill:#2560fc"/>
</svg>
