<svg xmlns="http://www.w3.org/2000/svg" width="18" height="18" viewBox="0 0 18 18">
    <path data-name="Rectangle 1031" style="fill:none" d="M0 0h18v18H0z"/>
    <path data-name="Path 12290" d="M1.406 0h5.8a.975.975 0 0 0 .1.031A1.456 1.456 0 0 1 8.462 1a7.213 7.213 0 0 1 .218 1.181c.052.334.088.67.132 1.017h.224c2.419 0 4.838 0 7.257.007a1.978 1.978 0 0 1 .8.16A1.524 1.524 0 0 1 18 4.862V16.3a1.674 1.674 0 0 1-.319 1.054 1.606 1.606 0 0 1-1.36.646H7.886a1.551 1.551 0 0 1-1.545-1.052 4.506 4.506 0 0 1-.154-.861c-.059-.422-.107-.846-.162-1.285H1.662a1.519 1.519 0 0 1-1.345-.656A4.118 4.118 0 0 1 0 13.394V1.406a.566.566 0 0 0 .028-.082A1.568 1.568 0 0 1 .585.361 1.874 1.874 0 0 1 1.406 0zM8.94 4.253l.161 1.277.507 4.094c.184 1.481.363 2.962.559 4.442a.8.8 0 0 1-.222.684c-.6.686-1.2 1.38-1.794 2.072-.027.032-.049.069-.085.12h8.2c.5 0 .681-.18.681-.673V4.919c0-.482-.185-.666-.67-.666zm.118 9.491-.055-.435-.748-6.064-.7-5.61a.572.572 0 0 0-.65-.577H1.7c-.459 0-.648.189-.648.649v11.387c0 .459.191.65.651.65h7.356zM8.5 14.808H7.1l.176 1.42z" transform="translate(0 .002)" style="fill:#343f53"/>
    <path data-name="Path 12291" d="M10.131 9.793c-.17-.242-.331-.463-.484-.691a5.959 5.959 0 0 1-.715-1.5.166.166 0 0 0-.18-.14.518.518 0 0 1-.522-.528.53.53 0 0 1 .549-.521H10.338v-.5a.527.527 0 1 1 1.053 0v.5h1.529a.532.532 0 0 1 .578.509.54.54 0 0 1-.543.549.187.187 0 0 0-.136.088 6.787 6.787 0 0 1-1.226 2.217c.222.187.438.373.657.553.167.138.342.266.508.405a.524.524 0 0 1 .1.748.518.518 0 0 1-.752.074c-.415-.324-.82-.66-1.246-1.007l-.152.122c-.34.278-.677.559-1.019.836a.534.534 0 1 1-.661-.82q.554-.446 1.103-.894zM10.865 9a5.338 5.338 0 0 0 .854-1.521H10.01A5.381 5.381 0 0 0 10.865 9z" transform="translate(2.352 1.533)" style="fill:#343f53"/>
    <path data-name="Path 12292" d="M4.909 7.122h-1.45l-.292 1.457c-.016.08-.029.162-.051.24a.526.526 0 0 1-1.024-.242c.074-.385.154-.768.231-1.153q.4-2.011.807-4.024a.55.55 0 0 1 .611-.5h.9a.549.549 0 0 1 .61.5q.518 2.579 1.034 5.159a.528.528 0 1 1-1.035.206c-.109-.528-.213-1.054-.318-1.582a.205.205 0 0 1-.023-.061zm-.817-3.163c-.141.7-.278 1.4-.418 2.095H4.7l-.42-2.095z" transform="translate(.594 .83)" style="fill:#343f53"/>
</svg>
