<svg xmlns="http://www.w3.org/2000/svg" width="18" height="18" viewBox="0 0 18 18">
    <path data-name="Rectangle 1038" style="fill:none" d="M0 0h18v18H0z"/>
    <path data-name="Path 12301" d="M16.208 8.651a7.315 7.315 0 0 0-2.489-5.606.919.919 0 0 1-.087-1.412.9.9 0 0 1 1.224.019 9.029 9.029 0 0 1-3.589 15.578A8.914 8.914 0 0 1 1.3 13.073a8.791 8.791 0 0 1 .564-10A10.588 10.588 0 0 1 3.1 1.728a.885.885 0 0 1 1.325 0 .9.9 0 0 1-.115 1.323 7.225 7.225 0 0 0 3.517 12.562 7.151 7.151 0 0 0 8.264-5.89c.065-.406.089-.823.117-1.072z" transform="translate(-.001 .44)" style="fill:#f50606"/>
    <path data-name="Path 12302" d="M6.315 4.5V.931A.895.895 0 0 1 8.1.784c.007.077.008.154.008.23v6.97a1.438 1.438 0 0 1-.035.373.886.886 0 0 1-.986.643.875.875 0 0 1-.767-.863c-.008-1.21 0-2.421 0-3.632z" transform="translate(1.803 .04)" style="fill:#f50606"/>
</svg>
