<svg xmlns="http://www.w3.org/2000/svg" width="11.529" height="19.727" viewBox="0 0 11.529 19.727">
    <path data-name="Path 12309" d="M11.529 1.587A1.529 1.529 0 0 0 10.348.043l-.035-.017L10.265 0H1.294l-.03.009A1.668 1.668 0 0 0 0 1.832c.011 4.085.01 8.239.009 12.256v3.988a1.534 1.534 0 0 0 1.657 1.651h8.187a1.537 1.537 0 0 0 1.675-1.67V4.065q.002-1.239.001-2.478zM10.477 18.07c0 .441-.164.6-.6.6H1.665c-.44 0-.6-.164-.6-.6V1.657c0-.442.164-.6.6-.6h8.207c.441 0 .6.164.6.6z"/>
    <path data-name="Path 12310" d="M5.763 18.531a1.012 1.012 0 1 1 1.02-1.009 1.012 1.012 0 0 1-1.02 1.009zm0-.6a.414.414 0 1 0-.406-.407.411.411 0 0 0 .406.407z"/>
    <path data-name="Path 12311" d="M7.275 1.837a.5.5 0 0 1-.14.368.594.594 0 0 1-.431.165H4.832a.583.583 0 0 1-.433-.164.5.5 0 0 1-.139-.369.52.52 0 0 1 .564-.517h1.884a.525.525 0 0 1 .567.517z"/>
</svg>
