<svg xmlns="http://www.w3.org/2000/svg" width="18" height="18" viewBox="0 0 18 18">
    <path data-name="Rectangle 1029" style="fill:none" d="M0 0h18v18H0z"/>
    <path data-name="Path 12287" d="M9.313 0c.371.08.751.13 1.11.246a4.785 4.785 0 0 1 3.308 4.818 4.731 4.731 0 0 1-1.907 3.589l-.175.133c.062.026.1.047.149.064a8.966 8.966 0 0 1 5.98 6.879 1.864 1.864 0 0 1-.188 1.49 1.657 1.657 0 0 1-1.361.781H1.762a1.686 1.686 0 0 1-1.718-1.3 2.5 2.5 0 0 1 .076-1.178 8.958 8.958 0 0 1 5.9-6.661l.188-.07-.2-.148A4.808 4.808 0 0 1 8.142.066c.134-.019.265-.044.4-.066zm-.4 16.741H16.1a.427.427 0 0 0 .476-.549 7.4 7.4 0 0 0-2.27-4.358A7.4 7.4 0 0 0 6.35 10.1a7.483 7.483 0 0 0-5.059 6.011c-.088.458.065.634.527.634zm3.563-11.93a3.55 3.55 0 1 0-1.036 2.515 3.555 3.555 0 0 0 1.042-2.515z" transform="translate(.076)" style="fill:#343f53"/>
</svg>
