<svg xmlns="http://www.w3.org/2000/svg" width="21" height="21" viewBox="0 0 21 21">
    <path data-name="Rectangle 981" style="fill:none" d="M0 0h21v21H0z"/>
    <path data-name="Path 12248" d="M8.77 17.559H1.633a1.534 1.534 0 0 1-1.039-2.712 5.939 5.939 0 0 0 1.712-2.524 6.325 6.325 0 0 0 .327-2.1V7.58a6.087 6.087 0 0 1 5.028-5.719c.178 0 .247-.1.238-.277a5.869 5.869 0 0 1 .02-.723.871.871 0 0 1 1.732 0V1.6c0 .158 0 .218.208.247a6.067 6.067 0 0 1 4.563 3.623A5.939 5.939 0 0 1 14.916 8v2.781a5.662 5.662 0 0 0 1.98 3.959 1.663 1.663 0 0 1 .653 1.406 1.5 1.5 0 0 1-1.3 1.4h-.445z" transform="translate(1.704 -.083)" style="fill:#343f53"/>
    <path data-name="Path 12249" d="M11.947 18.479a3.247 3.247 0 0 1-6.364 0z" transform="translate(1.704 -.083)" style="fill:#343f53"/>
</svg>
