<svg data-name="privacy policy" xmlns="http://www.w3.org/2000/svg" width="18" height="18" viewBox="0 0 18 18">
    <path data-name="Rectangle 1036" style="fill:none" d="M0 0h18v18H0z"/>
    <path data-name="Path 12298" d="M.01 2.074C.411 2.051.8 2.038 1.183 2A12.978 12.978 0 0 0 7.031.068a.281.281 0 0 1 .353-.01 12.781 12.781 0 0 0 5.8 1.949c.406.033.814.045 1.242.068v.278c0 2.531-.023 5.063.01 7.6a5.141 5.141 0 0 1-1.021 3.185 12.48 12.48 0 0 1-5.374 4.131 2.108 2.108 0 0 1-1.722-.025 12.619 12.619 0 0 1-5.214-3.971 4.989 4.989 0 0 1-1.073-2.5A13.8 13.8 0 0 1 0 9.369V2.284c0-.069.007-.138.01-.21zm1.426 1.288V3.6c0 2.143.014 4.285-.008 6.427a3.706 3.706 0 0 0 .619 2.1A8.744 8.744 0 0 0 3.9 14.148 12.533 12.533 0 0 0 6.746 15.9a.991.991 0 0 0 .941-.007c.491-.262 1-.494 1.479-.777a9.453 9.453 0 0 0 3.238-3.026A3.571 3.571 0 0 0 13 10.071c-.02-1.7-.006-3.408-.005-5.113V3.407c-.447-.066-.876-.115-1.3-.192A14.628 14.628 0 0 1 7.362 1.7a.35.35 0 0 0-.284 0 15.716 15.716 0 0 1-5.642 1.662z" transform="translate(1.5)" style="fill:#343f53"/>
    <path data-name="Path 12299" d="M3.712 6.558a2.893 2.893 0 0 1 .245.187c.514.484 1.025.973 1.539 1.457.2.189.264.186.447-.026q1.6-1.855 3.192-3.714c.215-.25.257-.254.513-.037.312.265.62.535.933.8a.239.239 0 0 1 .029.395Q8.332 8.258 6.061 10.9c-.16.186-.232.184-.417.011L2.671 8.1c-.234-.221-.235-.266-.017-.5.281-.3.561-.6.846-.893a1.717 1.717 0 0 1 .212-.157z" transform="translate(2.111 1.048)" style="fill:#343f53"/>
</svg>
