<svg xmlns="http://www.w3.org/2000/svg" width="18" height="18" viewBox="0 0 18 18">
    <path data-name="Rectangle 1249" style="fill:none" d="M0 0h18v18H0z"/>
    <path data-name="Path 12690" d="M17.994 13.1a.525.525 0 0 0-.52-.552 3.041 3.041 0 0 1-.376-.049 1.69 1.69 0 0 1-.02-3.289 2.376 2.376 0 0 1 .253-.037c.065-.007.132-.015.2-.026a.5.5 0 0 0 .462-.521v-.395c0-.5.009-1.02-.01-1.531a1.551 1.551 0 0 0-.823-1.32 1.858 1.858 0 0 0-.952-.217h-2.516l-.02-.052a1.534 1.534 0 0 1-.011-1.056 1.686 1.686 0 0 1 .737-.915.545.545 0 0 0 .212-.841 34.954 34.954 0 0 0-.371-.647c-.052-.089-.1-.178-.155-.268-.137-.238-.278-.484-.434-.717A1.541 1.541 0 0 0 12.381 0a1.427 1.427 0 0 0-.358.045 2.392 2.392 0 0 0-.589.246C9.5 1.409 7.544 2.551 5.649 3.654L4.533 4.3l-1.343.787L.875 6.434a1.671 1.671 0 0 0-.814.99l-.037.118L0 7.62v.525l.005.019a3.014 3.014 0 0 0 .3.712c.245.418.505.865.753 1.316a.613.613 0 0 0 .519.382.767.767 0 0 0 .38-.119 1.519 1.519 0 0 1 .712-.188h.065a1.667 1.667 0 0 1 1.556 1.107.122.122 0 0 1 0 .066 1.653 1.653 0 0 1-.877.948 2.126 2.126 0 0 1-.707.159.51.51 0 0 0-.5.533c0 .576-.006 1.246 0 1.9a1.5 1.5 0 0 0 .336.912 1.66 1.66 0 0 0 1.38.639H16.273a2 2 0 0 0 .46-.047 1.606 1.606 0 0 0 1.257-1.554c.009-.538.006-1.084 0-1.613V13.1zm-.906 1.844a.682.682 0 0 1-.547.669 1.282 1.282 0 0 1-.292.02H7.532v-.291c0-.127 0-.254-.016-.379a.366.366 0 0 0-.372-.337.375.375 0 0 0-.367.365c-.008.15 0 .3 0 .449v.18c-.058 0-.1.012-.146.012h-2.75a.766.766 0 0 1-.471-.137.644.644 0 0 1-.291-.507c-.011-.276-.008-.553-.01-.83v-.622c0-.09.032-.129.125-.149a2.59 2.59 0 0 0 .1-5.057l-.211-.049c0-.053-.013-.1-.013-.153 0-.421-.006-.842 0-1.262a1.011 1.011 0 0 1 .071-.385.709.709 0 0 1 .664-.419c.1-.005.207 0 .311 0h2.62v.622a2.223 2.223 0 0 0 0 .242.38.38 0 0 0 .36.336.37.37 0 0 0 .373-.317 3.108 3.108 0 0 0 .019-.362v-.45a.3.3 0 0 1 .016-.062c.047 0 .1-.009.148-.009h8.594a.744.744 0 0 1 .64.279.6.6 0 0 1 .141.307c.014.54.007 1.081.007 1.625-.177.053-.357.093-.526.161a2.5 2.5 0 0 0-1.641 2.076 2.576 2.576 0 0 0 2.027 2.877c.147.032.152.031.152.155 0 .467.006.934-.006 1.4zM1.678 9.463c-.221-.384-.438-.771-.662-1.153a.811.811 0 0 1-.1-.615.606.606 0 0 1 .267-.39c.377-.231.759-.454 1.163-.694V8.5a1.489 1.489 0 0 0 0 .173.356.356 0 0 0 .311.327c.164.029.333.034.494.072a1.728 1.728 0 0 1 1.072.765 2.723 2.723 0 0 0-1.2-.453 2.546 2.546 0 0 0-1.276.179 1.038 1.038 0 0 1-.07-.1zM4.8 5.187l5.582-3.249c.523-.3 1.045-.607 1.567-.913a.753.753 0 0 1 .578-.106.657.657 0 0 1 .427.3c.251.426.5.855.748 1.292a2.613 2.613 0 0 0-.934 2.775H4.64c.073-.045.116-.073.16-.099z" transform="translate(0 .733)" style="fill:#343f53"/>
    <path data-name="Path 12691" d="M14.161 7.94a.485.485 0 0 1-.128.261l-1.305 1.742-2.976 3.966a1.282 1.282 0 0 1-.132.159.359.359 0 0 1-.474.036.367.367 0 0 1-.12-.46 1.027 1.027 0 0 1 .111-.174q2.129-2.841 4.26-5.68a1.028 1.028 0 0 1 .173-.19.346.346 0 0 1 .39-.031.375.375 0 0 1 .2.372z" transform="translate(0 .733)" style="fill:#343f53"/>
    <path data-name="Path 12692" d="M10.925 8a.953.953 0 0 0-1.649 0 1.775 1.775 0 0 0-.289.995 1.668 1.668 0 0 0 .443 1.2.9.9 0 0 0 1.221.1 1.379 1.379 0 0 0 .509-.836A1.824 1.824 0 0 0 10.925 8zm-.614 1.566c-.134.2-.281.207-.416.006a1.183 1.183 0 0 1 0-1.137c.14-.207.288-.206.424.008a.979.979 0 0 1 .137.562.973.973 0 0 1-.141.562z" transform="translate(0 .733)" style="fill:#343f53"/>
    <path data-name="Path 12693" d="M13.883 11.7a.943.943 0 0 0-1.585-.107 1.851 1.851 0 0 0 0 2.2.93.93 0 0 0 1.48.021 1.673 1.673 0 0 0 .382-1.093 1.792 1.792 0 0 0-.277-1.021zm-.63 1.569c-.133.192-.27.192-.4 0a1.157 1.157 0 0 1 .006-1.162c.132-.182.264-.182.394 0a1.085 1.085 0 0 1 .166.586 1.1 1.1 0 0 1-.162.573z" transform="translate(0 .733)" style="fill:#343f53"/>
    <path data-name="Path 12694" d="M7.539 12.417c-.008.143-.008.288-.028.43a.369.369 0 0 1-.729-.01 7.913 7.913 0 0 1 0-.846.369.369 0 0 1 .728 0c.02.142.019.287.028.431z" transform="translate(0 .733)" style="fill:#343f53"/>
    <path data-name="Path 12695" d="M6.774 9.466V9.12a.384.384 0 0 1 .368-.4.367.367 0 0 1 .373.356 6.936 6.936 0 0 1 0 .81.354.354 0 0 1-.364.323.373.373 0 0 1-.369-.343c-.01-.132 0-.265 0-.4z" transform="translate(0 .733)" style="fill:#343f53"/>
</svg>
