<svg data-name="Component 30 – 1" xmlns="http://www.w3.org/2000/svg" width="24" height="24" viewBox="0 0 24 24">
    <defs>
        <clipPath id="til0vsoo0a">
            <path data-name="Rectangle 1070" transform="translate(128 765)" style="fill:#afafaf" d="M0 0h24v24H0z"/>
        </clipPath>
    </defs>
    <g data-name="Mask Group 65" transform="translate(-128 -765)" style="clip-path:url(#til0vsoo0a)">
        <path data-name="Path 12330" d="M26.412 15.32a2.146 2.146 0 0 1-.72.974c-1.59 1.383-3.17 2.78-4.76 4.163a.364.364 0 0 0-.136.414q.741 3.224 1.472 6.454a1.287 1.287 0 0 1-1.952 1.435q-2.829-1.693-5.659-3.4a.4.4 0 0 0-.48.009q-2.815 1.693-5.645 3.377a1.277 1.277 0 0 1-1.74-.259 1.3 1.3 0 0 1-.23-1.129q.734-3.224 1.472-6.454a.415.415 0 0 0-.151-.475q-2.491-2.166-4.972-4.351a1.241 1.241 0 0 1-.428-1.388 1.213 1.213 0 0 1 1.12-.889c1.322-.127 2.644-.245 3.965-.362.917-.085 1.835-.169 2.752-.245a.287.287 0 0 0 .268-.207c.866-2.037 1.74-4.074 2.606-6.11A1.3 1.3 0 0 1 14.328 6a1.275 1.275 0 0 1 1.308.866c.795 1.863 1.618 3.716 2.375 5.6a1.076 1.076 0 0 0 1.072.8c1.971.132 3.932.348 5.9.508a1.429 1.429 0 0 1 1.43 1.077l-.001.469z" style="fill:#afafaf" transform="translate(125.583 759.51)"/>
    </g>
</svg>
