<svg xmlns="http://www.w3.org/2000/svg" width="24" height="24" viewBox="0 0 24 24">
    <path data-name="Rectangle 1245" style="fill:none" d="M0 0h24v24H0z"/>
    <path data-name="Path 12676" d="M12.989 42.514a10.778 10.778 0 0 1 .328-1.3 4.233 4.233 0 0 1 4.247-2.687 5.843 5.843 0 0 1 .674.089.648.648 0 0 0 .638-.186q4.735-4.748 9.487-9.5a.621.621 0 0 0 .2-.63 4.253 4.253 0 0 1 3.609-5.151.78.78 0 0 0 .133-.044h.656c-.692.7-1.374 1.41-2.084 2.092a.7.7 0 0 0-.2.833c.266.727.5 1.463.736 2.19a.663.663 0 0 0 .47.47c.763.248 1.525.5 2.288.763a.574.574 0 0 0 .674-.16c.692-.709 1.4-1.41 2.137-2.146a6.133 6.133 0 0 1 0 .7 4.23 4.23 0 0 1-3.325 3.7 3.714 3.714 0 0 1-1.738.009.746.746 0 0 0-.789.239q-4.668 4.695-9.354 9.363a.774.774 0 0 0-.248.789 4.294 4.294 0 0 1-8.405 1.764c-.044-.2-.071-.4-.106-.594-.028-.195-.028-.399-.028-.603zm7.616-2.456 9.363-9.358-.532-.532-9.354 9.354c.151.164.337.35.523.536zm-3.289 4.415v.018c.293 0 .594.009.887-.009a.353.353 0 0 0 .239-.124c.3-.479.585-.958.869-1.445a.346.346 0 0 0 0-.266 34.125 34.125 0 0 0-.869-1.445.313.313 0 0 0-.231-.133q-.878-.013-1.756 0a.33.33 0 0 0-.239.133c-.3.479-.585.958-.869 1.445a.346.346 0 0 0 0 .266c.124.239.266.461.408.683.177.293.293.7.55.842s.665.036 1.011.036z" transform="translate(-12.989 -23.106)" style="fill:#afafaf"/>
    <path data-name="Path 12677" d="M36.334 42.771c-1.215 1.206-2.421 2.421-3.609 3.609L27.8 41.459a1.371 1.371 0 0 0-.168-1.8 1.345 1.345 0 0 0-1.729-.071 44.171 44.171 0 0 1-.656-.665l3.609-3.609.638.665a1.358 1.358 0 0 0 .142 1.782 1.374 1.374 0 0 0 1.764.1c1.654 1.639 3.3 3.279 4.934 4.91zm-6.863-2.722 4.238 4.238c.168-.168.364-.355.532-.523L30 39.526c-.165.174-.36.364-.528.523z" transform="translate(-12.989 -23.106)" style="fill:#afafaf"/>
    <path data-name="Path 12678" d="M33.533 46.9c1.117-1.105 2.207-2.2 3.307-3.3a2.6 2.6 0 0 1-3.307 3.3z" transform="translate(-12.989 -23.106)" style="fill:#afafaf"/>
    <path data-name="Path 12679" d="M22.414 33.577c-.035-.035-.106-.1-.168-.16-1.924-1.924-3.839-3.848-5.772-5.754a1.343 1.343 0 0 0-.514-.293c-.39-.124-.8-.2-1.2-.31a.378.378 0 0 1-.213-.151c-.47-.8-.922-1.6-1.4-2.429.4-.4.789-.8 1.2-1.188a.21.21 0 0 1 .177.009c.771.434 1.552.878 2.314 1.321a.4.4 0 0 1 .151.239c.106.39.186.789.3 1.179a1.211 1.211 0 0 0 .284.5q2.873 2.886 5.763 5.763c.062.062.142.115.2.16z" transform="translate(-12.989 -23.106)" style="fill:#afafaf"/>
</svg>
