<svg data-name="Component 77 – 1" xmlns="http://www.w3.org/2000/svg" width="14" height="14" viewBox="0 0 14 14">
    <defs>
        <clipPath id="vgjegsulwa">
            <path data-name="Rectangle 1071" style="stroke:#707070;fill:#fafafa" d="M0 0h14v14H0z"/>
        </clipPath>
    </defs>
    <g data-name="Mask Group 66" style="clip-path:url(#vgjegsulwa)">
        <path data-name="Path 12331" d="M16.011 10.435a1.252 1.252 0 0 1-.42.568c-.927.807-1.849 1.622-2.777 2.428a.212.212 0 0 0-.08.241q.432 1.881.859 3.765a.751.751 0 0 1-1.139.837q-1.65-.988-3.3-1.981a.23.23 0 0 0-.28.005q-1.642.988-3.293 1.97a.745.745 0 0 1-1.015-.151.757.757 0 0 1-.134-.659q.428-1.881.859-3.765a.242.242 0 0 0-.088-.277Q3.75 12.154 2.3 10.879a.724.724 0 0 1-.25-.809.707.707 0 0 1 .653-.519 300.94 300.94 0 0 1 2.313-.211c.535-.049 1.07-.1 1.605-.143a.167.167 0 0 0 .156-.121C7.286 7.889 7.8 6.7 8.3 5.512A.759.759 0 0 1 8.962 5a.744.744 0 0 1 .763.5c.464 1.087.944 2.168 1.386 3.265a.628.628 0 0 0 .626.466c1.15.077 2.294.2 3.444.3a.834.834 0 0 1 .834.628c-.004.092-.004.185-.004.276z" transform="translate(-2.014 -4.7)" style="fill:#fafafa"/>
    </g>
</svg>
