<svg xmlns="http://www.w3.org/2000/svg" width="18" height="18.036" viewBox="0 0 18 18.036">
    <path data-name="Rectangle 1037" style="fill:none" d="M0 0h18v18H0z" transform="translate(0 .018)"/>
    <path data-name="Path 12300" d="M14.309 2.127V0H.017v17.531c0 .049 0 .1-.005.152v.079L0 18h10.583l.755-.756c.909-.911 1.849-1.853 2.777-2.776a.634.634 0 0 0 .2-.478c-.007-3.955-.006-7.975-.006-11.863zM10.575 16.14v-1.867h1.866zM12.808 13H9.31v3.5H1.516V1.481h11.292z" transform="translate(1.844 .018)" style="fill:#343f53;stroke:#707070;stroke-width:.036px"/>
    <path data-name="Rectangle 1039" transform="translate(4.581 5.718)" style="fill:#343f53;stroke:#707070;stroke-width:.036px" d="M0 0h8.856v1.458H0z"/>
    <path data-name="Rectangle 1040" transform="translate(4.582 7.907)" style="fill:#343f53;stroke:#707070;stroke-width:.036px" d="M0 0h8.847v1.468H0z"/>
    <path data-name="Rectangle 1041" transform="translate(4.581 10.106)" style="fill:#343f53;stroke:#707070;stroke-width:.036px" d="M0 0h8.853v1.465H0z"/>
    <path data-name="Rectangle 1042" transform="translate(6.595 3.165)" style="fill:#343f53;stroke:#707070;stroke-width:.036px" d="M0 0h4.831v1.459H0z"/>
    <path data-name="Rectangle 1043" transform="translate(6.698 13.032)" style="fill:#343f53;stroke:#707070;stroke-width:.036px" d="M0 0h2.528v1.465H0z"/>
    <path data-name="Rectangle 1044" transform="translate(4.581 13.037)" style="fill:#343f53;stroke:#707070;stroke-width:.036px" d="M0 0h1.523v1.462H0z"/>
</svg>
