<svg xmlns="http://www.w3.org/2000/svg" width="36.855" height="38" viewBox="0 0 36.855 38">
    <path data-name="Path 12674" d="M36.749 27.64a2.481 2.481 0 0 0-2.361-1.841.871.871 0 0 0-.137.007 4.479 4.479 0 0 0-1.066.238c-.1.029-.2.065-.3.094-.014 0-.022.007-.036.007a11.5 11.5 0 0 0 .418-6.725 16.98 16.98 0 0 0-3.753-7.321c-.194-.238-.454-.54-.742-.835-.007-.014-.022-.022-.029-.029-.54-.612-1.764-1.757-1.951-1.915-.266-.223-.54-.446-.806-.662s-.533-.439-.8-.662a.339.339 0 0 1-.086-.1 2.318 2.318 0 0 0-.583-1.822c.086-.158.18-.31.266-.461.281-.49.569-.986.806-1.5a7.48 7.48 0 0 0 .612-1.937 1.705 1.705 0 0 0-.287-1.427 1.244 1.244 0 0 0-.986-.432 2.211 2.211 0 0 0-.821.173.783.783 0 0 1-.3.065.556.556 0 0 1-.274-.072 14.87 14.87 0 0 0-.677-.324c-.094-.043-.194-.086-.288-.13l-.052-.03h-.785l-.058.029-.281.13c-.223.1-.446.2-.67.317a.7.7 0 0 1-.31.086.575.575 0 0 1-.258-.062c-.216-.108-.439-.216-.655-.324-.094-.043-.187-.094-.281-.137l-.054-.031h-.86l-.058.022a5.132 5.132 0 0 1-.18.065 2.021 2.021 0 0 0-.475.223.974.974 0 0 1-.576.216 1.235 1.235 0 0 1-.547-.151 1.342 1.342 0 0 0-.6-.151 1.134 1.134 0 0 0-1.051.77 2.57 2.57 0 0 0-.187 1.08 6.537 6.537 0 0 0 .958 2.75c.1.187.209.374.317.562a3.817 3.817 0 0 0-2.369-.792c-.151 0-.3.007-.461.022s-.3.022-.446.022a3.828 3.828 0 0 1-2.066-.59.966.966 0 0 0-.518-.158.8.8 0 0 0-.677.382.817.817 0 0 0-.122.612.954.954 0 0 0 .446.59 4.921 4.921 0 0 0 2.354.814c.137.007.288.014.461.014s.338-.007.5-.007.331-.007.5-.007h.157a2.294 2.294 0 0 1 1.418.6 8.193 8.193 0 0 0-2.635.6 4.744 4.744 0 0 0-2.318 1.93.846.846 0 0 0 .7 1.318.806.806 0 0 0 .684-.4 3.71 3.71 0 0 1 2.541-1.613c.259-.058.518-.094.785-.13a23.559 23.559 0 0 0-4.889 5.277 14.684 14.684 0 0 0-2.693 8.892l-.979-.079a1.9 1.9 0 0 0-2.11-1.93H2.119a1.906 1.906 0 0 0-2.117 2.1v9.741c0 .929-.007 1.886.007 2.829a1.82 1.82 0 0 0 1.764 1.836c.425.007.871.014 1.325.014s.914-.007 1.39-.014a1.822 1.822 0 0 0 1.728-1.447c.014-.058.022-.108.036-.166l.972.36c1.318.49 2.678.994 4.01 1.5a7.466 7.466 0 0 0 2.649.482h.022c1.382-.007 2.757-.007 4.089-.007 1.282 0 2.556 0 3.8.007h.022a7.171 7.171 0 0 0 3.9-1.13c1.944-1.238 3.924-2.484 5.839-3.7l4.125-2.613a2.6 2.6 0 0 0 1.069-2.912zM16.432 2.146a2.086 2.086 0 0 0 .619.094 2.029 2.029 0 0 0 1.159-.367.88.88 0 0 1 .49-.173.956.956 0 0 1 .511.18 2.286 2.286 0 0 0 1.21.374 2.355 2.355 0 0 0 1.26-.4.92.92 0 0 1 .461-.18.417.417 0 0 1 .216.065 2.7 2.7 0 0 0 1.476.5 2.151 2.151 0 0 0 .7-.115 3.514 3.514 0 0 1-.223.734c-.346.7-.742 1.4-1.123 2.074-.086.158-.18.31-.259.468a.146.146 0 0 1-.065.043 10.647 10.647 0 0 1-2.635.346 9.313 9.313 0 0 1-2-.216c-.238-.05-.331-.108-.4-.245-.18-.353-.36-.706-.533-1.051-.3-.576-.6-1.174-.886-1.771a1.4 1.4 0 0 1-.094-.389.488.488 0 0 1 .116.029zm6.926 5.745a.332.332 0 0 1-.238.158c-.029 0-.058.014-.086.014a.421.421 0 0 1-.094.014.989.989 0 0 1-.2.036 1.2 1.2 0 0 0-.223.036l-.252.043-.5.086c-.331.05-.67.1-1 .122a8.148 8.148 0 0 1-.41.029 6.547 6.547 0 0 1-.991-.03c-.166-.014-.324-.043-.49-.072l-.245-.043-.122-.022a.618.618 0 0 0-.122-.022c-.331-.05-.662-.108-.994-.166a.484.484 0 0 1-.36-.252.562.562 0 0 1 .029-.511c.1-.194.209-.216.3-.216a.793.793 0 0 1 .13.014 11.622 11.622 0 0 0 2.721.338 10.266 10.266 0 0 0 1.253-.079c.389-.05.778-.122 1.152-.194.086-.014.173-.036.259-.05a1.319 1.319 0 0 1 .151-.014c.209 0 .317.094.374.317a.554.554 0 0 1-.042.464zm-12.967 8.546a21.157 21.157 0 0 1 5.616-6.645c.209-.173.353-.274.482-.274a.437.437 0 0 1 .245.094 1.174 1.174 0 0 0 .389.144l.086.022a12.22 12.22 0 0 0 2.9.324c.418 0 .85-.014 1.325-.05a6.155 6.155 0 0 0 2.772-.677.157.157 0 0 1 .036.022c.4.31.792.641 1.174.958l.3.245c.058.043.108.086.166.122.742.742 1.526 1.469 1.656 1.649a2.693 2.693 0 0 0 .18.209c.029.029.05.058.079.086a14.914 14.914 0 0 1 4.061 8.409 9.047 9.047 0 0 1-1.3 5.969.757.757 0 0 1-.3.259c-1.649.734-3.326 1.476-4.953 2.2l-.778.346c-.13.058-.266.115-.4.173a3.638 3.638 0 0 0-3.074-3.693c-1.39-.223-2.808-.367-4.183-.511l-.612-.065a8.188 8.188 0 0 1-3.672-1.008 12.514 12.514 0 0 0-3.564-1.627.061.061 0 0 1-.022-.036 3.113 3.113 0 0 1-.05-.533v-.022a12.041 12.041 0 0 1 1.441-6.09zM34.77 29.152c-2.959 1.879-6.465 4.1-10.051 6.372a5.159 5.159 0 0 1-2.822.8h-8.086a5.975 5.975 0 0 1-2.131-.432l-.353-.13c-1.613-.6-3.276-1.224-4.917-1.829-.122-.043-.13-.043-.13-.2.007-1.361.007-2.743.007-4.075v-1.259a2.18 2.18 0 0 0-.014-.3.857.857 0 0 0-.828-.763h-.036a.828.828 0 0 0-.792.835c-.007.353-.007.706-.007 1.044v5.94c0 .425-.014.439-.446.439h-2.16c-.3 0-.331-.029-.331-.324v-12.5c0-.31.036-.346.353-.346h2.2c.338 0 .382.029.382.4v2.628c0 .6.3.965.8.979h.036c.5 0 .828-.382.835-.979v-1.088h.05a5.886 5.886 0 0 1 1.994.281 22.315 22.315 0 0 1 2.736 1.166c.151.079.3.158.446.23a9.305 9.305 0 0 0 3.153 1.181c1.21.144 2.433.281 3.621.418.562.065 1.116.13 1.678.187l.223.022c.194.022.374.036.554.072a2.039 2.039 0 0 1 1.681 2.078v.446h-5.263c-.576 0-.922.3-.936.8a.844.844 0 0 0 .216.6.951.951 0 0 0 .72.266c.9 0 1.8.007 2.7.007 1.188 0 2.254 0 3.254-.007a1.847 1.847 0 0 0 .706-.18c1.829-.8 3.665-1.606 5.493-2.412 1.361-.6 2.729-1.2 4.089-1.8a3.667 3.667 0 0 1 .67-.238.931.931 0 0 1 .238-.029.824.824 0 0 1 .785.569.878.878 0 0 1-.317 1.131z"/>
    <path data-name="Path 12675" d="M22.091 17.711a4.243 4.243 0 0 0-.418-.173c-.209-.079-.468-.173-.526-.281a1.5 1.5 0 0 1-.036-.713c.014-.144.029-.3.029-.439v-1.684c.245.122.454.238.662.353a1.055 1.055 0 0 0 .5.144.8.8 0 0 0 .619-.3.821.821 0 0 0-.122-1.181 2.164 2.164 0 0 0-.526-.353c-.3-.13-.612-.245-.929-.36-.065-.022-.13-.05-.2-.072v-.439a.852.852 0 0 0-.835-.9h-.025a.829.829 0 0 0-.8.9v.518a2.386 2.386 0 0 0-.18.05 2.89 2.89 0 0 0-2.059 2.448 2.546 2.546 0 0 0 1.375 2.765c.058.029.115.065.173.1a3.075 3.075 0 0 0 .576.288c.1.036.122.043.122.223-.007.893-.007 1.8-.007 2.671v.972l-.022-.007c-.425-.166-.864-.331-1.289-.511a1.162 1.162 0 0 0-.425-.094.787.787 0 0 0-.7.4.828.828 0 0 0 .259 1.109 1.045 1.045 0 0 0 .137.086.292.292 0 0 0 .065.036 4.454 4.454 0 0 0 1.973.684v.094c0 .137.007.274.007.41a.835.835 0 0 0 .828.914h.007a.841.841 0 0 0 .828-.922c.007-.18 0-.353 0-.54v-.036c.072-.022.144-.036.216-.058a3.493 3.493 0 0 0 2.426-2.973 3.07 3.07 0 0 0-1.703-3.129zm-1.227 4.781v-3.744a1.732 1.732 0 0 1 1.548 1.814 2.02 2.02 0 0 1-1.548 1.93zm-1.123-8.352v2.837a1.329 1.329 0 0 1-1.164-1.278 1.509 1.509 0 0 1 1.16-1.559z"/>
    <path data-name="Line 17" transform="translate(5.445 24.781)" style="fill:none;stroke:#000;stroke-miterlimit:10;stroke-width:1.656px" d="M0 0v4.759"/>
</svg>
