<svg xmlns="http://www.w3.org/2000/svg" width="38.007" height="38.004" viewBox="0 0 38.007 38.004">
  <g id="ttl_booking" transform="translate(0.005 0.013)">
    <path id="Path_12208" data-name="Path 12208" d="M6.34,3.8c0-.485-.011-.907,0-1.329a2.533,2.533,0,0,1,5.064,0c.011.422,0,.844,0,1.3h5.064V2.65a2.54,2.54,0,1,1,5.074,0V3.768h5.064c0-.433-.011-.876,0-1.308A2.52,2.52,0,0,1,30.172.234a2.459,2.459,0,0,1,1.488,2.2c.021.433,0,.865,0,1.361h.475a30.9,30.9,0,0,1,3.281.084A3.02,3.02,0,0,1,37.99,6.9q.016,8.213.011,16.426c0,.454-.264.749-.644.738s-.622-.3-.622-.76V12.693H1.277V32.062A1.929,1.929,0,0,0,3.4,34.2H20.572a2.414,2.414,0,0,1,.39.011.61.61,0,0,1,.559.612.625.625,0,0,1-.58.644,3.034,3.034,0,0,1-.316.011H3.334A3.159,3.159,0,0,1,0,32.159V7.144A3.159,3.159,0,0,1,3.334,3.825C4.325,3.8,5.307,3.8,6.34,3.8ZM11.4,5.077V6.216a2.534,2.534,0,1,1-5.064,0V5.066H3.281a1.9,1.9,0,0,0-2,2.015v3.956a3.008,3.008,0,0,0,.021.327H36.724c0-1.509.011-2.986,0-4.463A1.81,1.81,0,0,0,35.1,5.1c-1.129-.074-2.258-.021-3.429-.021V6.272a2.533,2.533,0,1,1-5.064-.011V5.076H21.543c0,.454.011.865,0,1.287a2.527,2.527,0,1,1-5.053-.021c-.021-.433,0-.855,0-1.287-1.741.021-3.387.021-5.086.021ZM7.6,4.391V6.248a1.268,1.268,0,1,0,2.532.011c.011-1.224.011-2.448,0-3.682A1.268,1.268,0,1,0,7.6,2.588c-.008.621,0,1.212,0,1.8ZM17.732,4.4V6.259a1.263,1.263,0,1,0,2.521.011c.011-1.224.011-2.448,0-3.682a1.262,1.262,0,1,0-2.521-.011c-.008.611,0,1.212,0,1.824Zm10.128.011V6.3a1.261,1.261,0,1,0,2.521-.011c.011-1.234.011-2.479,0-3.713a1.262,1.262,0,1,0-2.521.011c-.009.61,0,1.212,0,1.824Z" fill="#fff"/>
    <path id="Path_12209" data-name="Path 12209" d="M43.074,60.766a8.224,8.224,0,1,1,5.812-2.43A8.229,8.229,0,0,1,43.074,60.766Zm6.931-8.218a6.963,6.963,0,1,0-6.942,6.963,6.963,6.963,0,0,0,6.942-6.963Z" transform="translate(-13.282 -22.775)" fill="#226816"/>
    <path id="Path_12210" data-name="Path 12210" d="M7.585,20.268c-.411,0-.812.011-1.224,0A1.255,1.255,0,0,1,5.074,19q-.016-.949,0-1.9a1.239,1.239,0,0,1,1.255-1.255q1.266-.016,2.532,0a1.263,1.263,0,0,1,1.277,1.288c.011.622.011,1.245,0,1.857a1.263,1.263,0,0,1-1.277,1.287C8.429,20.268,8.007,20.268,7.585,20.268ZM8.84,18.981V17.134H6.362V18.98Z" fill="#fff"/>
    <path id="Path_12211" data-name="Path 12211" d="M15.234,15.837c.411,0,.823-.011,1.224,0a1.261,1.261,0,0,1,1.266,1.255c.011.644.011,1.3,0,1.941a1.245,1.245,0,0,1-1.245,1.234c-.855.011-1.709.011-2.574,0a1.252,1.252,0,0,1-1.245-1.234q-.031-.986,0-1.973a1.244,1.244,0,0,1,1.224-1.213c.453-.031.907-.01,1.35-.01Zm-1.277,1.277v1.867h2.479V17.113Z" fill="#fff"/>
    <path id="Path_12212" data-name="Path 12212" d="M22.83,15.825c.411,0,.823-.011,1.224,0a1.261,1.261,0,0,1,1.264,1.257c.011.644.011,1.3,0,1.941a1.243,1.243,0,0,1-1.234,1.234q-1.287.024-2.574,0a1.252,1.252,0,0,1-1.245-1.266q-.016-.949,0-1.9a1.245,1.245,0,0,1,1.253-1.254c.447-.012.879-.012,1.312-.012Zm1.213,3.154V17.125H21.564v1.857Z" fill="#fff"/>
    <path id="Path_12213" data-name="Path 12213" d="M30.383,20.268c-.411,0-.812.011-1.224,0A1.255,1.255,0,0,1,27.872,19q-.016-.949,0-1.9a1.239,1.239,0,0,1,1.255-1.255q1.266-.016,2.532,0a1.263,1.263,0,0,1,1.277,1.287c.011.622.011,1.245,0,1.857a1.248,1.248,0,0,1-1.277,1.277Zm-1.245-1.3h2.5V17.125h-2.5Z" fill="#fff"/>
    <path id="Path_12214" data-name="Path 12214" d="M7.638,21.534c.411,0,.823-.011,1.224,0a1.261,1.261,0,0,1,1.266,1.255c.011.644.011,1.3,0,1.941a1.245,1.245,0,0,1-1.245,1.234c-.855.011-1.709.011-2.574,0A1.245,1.245,0,0,1,5.064,24.73q-.024-.97,0-1.941A1.247,1.247,0,0,1,6.33,21.534C6.773,21.525,7.206,21.534,7.638,21.534Zm1.2,3.144V22.825H6.362v1.857Z" fill="#fff"/>
    <path id="Path_12215" data-name="Path 12215" d="M15.192,21.534c.422,0,.844-.011,1.266,0a1.263,1.263,0,0,1,1.276,1.291c.011.622.011,1.245,0,1.857a1.257,1.257,0,0,1-1.276,1.283q-1.266.016-2.532,0A1.261,1.261,0,0,1,12.671,24.7q-.016-.949,0-1.9a1.254,1.254,0,0,1,1.255-1.266c.422-.008.844,0,1.266,0Zm1.255,3.144V22.825H13.968v1.857Z" fill="#fff"/>
    <path id="Path_12216" data-name="Path 12216" d="M7.6,31.661c-.422,0-.844.011-1.266,0A1.254,1.254,0,0,1,5.075,30.4q-.016-.949,0-1.9a1.248,1.248,0,0,1,1.287-1.266q1.245-.017,2.49,0a1.248,1.248,0,0,1,1.277,1.277c.011.622.011,1.245,0,1.857a1.252,1.252,0,0,1-1.311,1.288c-.41.01-.811.01-1.222.01ZM6.341,30.374h2.5V28.525h-2.5Z" fill="#fff"/>
    <path id="Path_12217" data-name="Path 12217" d="M15.213,31.661c-.422,0-.844.011-1.266,0a1.263,1.263,0,0,1-1.277-1.287q-.016-.928,0-1.857a1.257,1.257,0,0,1,1.277-1.287q1.266-.016,2.532,0A1.247,1.247,0,0,1,17.734,28.5q.016.949,0,1.9a1.248,1.248,0,0,1-1.287,1.266c-.422.01-.829,0-1.234,0Zm-1.255-3.154v1.867h2.479V28.507Z" fill="#fff"/>
    <path id="Path_12218" data-name="Path 12218" d="M21.543,22.8v1.867c.074.032.148.053.211.084a.587.587,0,0,1,.369.738.613.613,0,0,1-.686.475,1.244,1.244,0,0,1-1.171-1.182q-.032-1.029,0-2.057a1.219,1.219,0,0,1,1.16-1.182q1.3-.04,2.606,0a.628.628,0,1,1-.011,1.255Z" fill="#fff"/>
    <path id="Path_12219" data-name="Path 12219" d="M50.333,52.548a7.29,7.29,0,1,1-7.248-7.3A7.29,7.29,0,0,1,50.333,52.548Zm-8.6,2.384c-.8-.8-1.54-1.551-2.289-2.289a.654.654,0,0,0-1.013-.053.664.664,0,0,0,.084.992c.844.855,1.7,1.7,2.542,2.542.517.517.791.517,1.319-.011Q45,53.5,47.611,50.871a1.474,1.474,0,0,0,.285-.348.626.626,0,0,0-.506-.939,1.149,1.149,0,0,0-.675.316c-1.234,1.2-2.448,2.426-3.661,3.65-.423.45-.854.908-1.319,1.382Z" transform="translate(-13.282 -22.775)" fill="#226816"/>
  </g>
</svg>
