<svg xmlns="http://www.w3.org/2000/svg" width="38" height="38" viewBox="0 0 38 38">
    <path data-name="Path 12236" d="M27.279 31.732a15.516 15.516 0 0 1-4.369 1.942c-.76.2-.76.211-.76 1.024v2.533c0 .538-.232.76-.781.77h-4.791c-.538 0-.76-.232-.76-.781v-3.293c-.9-.306-1.794-.549-2.638-.9s-1.657-.8-2.533-1.245c-.718.728-1.477 1.5-2.237 2.258-.475.475-.76.475-1.235.011-1.1-1.087-2.184-2.184-3.271-3.271-.433-.433-.433-.739 0-1.171a401.9 401.9 0 0 1 2.248-2.227c-.559-1.277-1.1-2.469-1.6-3.683a6.1 6.1 0 0 1-.338-1.214c-.053-.274-.179-.327-.422-.317-.992.011-1.984.011-2.965 0-.612 0-.823-.211-.823-.834v-4.671c0-.612.211-.823.834-.823.981 0 1.952-.011 2.934.011.3.011.4-.084.464-.38a14.953 14.953 0 0 1 2.022-4.754c-.7-.7-1.4-1.382-2.1-2.079-.77-.77-.77-.9-.011-1.657l3.05-3.05c.454-.454.749-.454 1.2 0 .76.77 1.52 1.53 2.279 2.29.728-.38 1.4-.781 2.132-1.087a24.609 24.609 0 0 1 2.617-.886c.338-.095.422-.232.412-.559-.021-.96-.011-1.931-.011-2.891 0-.591.222-.8.813-.8h4.706c.591 0 .8.222.8.813v3.314a15.478 15.478 0 0 1 5.129 2.132c.77-.781 1.52-1.551 2.29-2.311.475-.475.76-.475 1.235-.011 1.087 1.076 2.163 2.163 3.25 3.25.475.475.475.76 0 1.235-.77.76-1.541 1.52-2.216 2.195.559 1.277 1.1 2.48 1.6 3.683a5.033 5.033 0 0 1 .327 1.182c.053.317.2.369.475.359.96-.011 1.931-.011 2.891 0 .654 0 .865.2.865.844v4.675c0 .612-.211.823-.844.823-.981 0-1.952.011-2.934 0-.264 0-.39.042-.454.338a15.044 15.044 0 0 1-2.026 4.759c.106.106.2.211.3.317 1.615 1.615 3.24 3.219 4.833 4.844a3.152 3.152 0 0 1-1.414 5.3 3.067 3.067 0 0 1-3.113-.876q-2.39-2.374-4.759-4.759c-.09-.119-.176-.235-.301-.372zm-26-10.827h3.25c.464 0 .686.158.76.58a14.161 14.161 0 0 0 2.246 5.432.648.648 0 0 1-.106.95c-.591.6-1.192 1.2-1.783 1.794-.169.169-.359.327-.517.475.929.939 1.8 1.815 2.712 2.733.739-.739 1.477-1.488 2.216-2.237.412-.412.633-.443 1.108-.116a14.038 14.038 0 0 0 5.255 2.174c.528.106.675.285.675.844v3.183h3.8v-3.138c0-.612.137-.749.718-.9a24.515 24.515 0 0 0 2.427-.707c.791-.3 1.541-.707 2.29-1.066l-1.878-1.878a11.421 11.421 0 1 1 4.6-4.622c.623.623 1.235 1.235 1.847 1.836a13.885 13.885 0 0 0 1.794-4.675c.095-.517.285-.665.8-.665h3.211v-3.8h-3.178c-.549 0-.739-.148-.844-.675a14.029 14.029 0 0 0-2.153-5.224c-.348-.528-.327-.718.127-1.171a391.94 391.94 0 0 1 2.184-2.163c-.918-.908-1.8-1.794-2.691-2.68.011-.011-.011 0-.032.021-.7.686-1.382 1.382-2.079 2.068-.549.549-.7.559-1.319.137a13.579 13.579 0 0 0-4.738-2.016c-1.087-.243-1.087-.232-1.087-1.34V1.298h-3.8v3.029c0 .749-.106.9-.844 1.034a13.709 13.709 0 0 0-4.97 2.047c-.633.422-.791.412-1.33-.127A332.465 332.465 0 0 1 7.861 5.17c-.918.918-1.8 1.8-2.7 2.712.728.718 1.488 1.467 2.237 2.227a.662.662 0 0 1 .095 1.013 13.989 13.989 0 0 0-2.216 5.371.644.644 0 0 1-.739.6H1.647c-.127 0-.253.011-.38.021.01 1.279.01 2.514.01 3.791zm22.225 7.133c-1.119-1.129-2.205-2.248-3.314-3.335a1.88 1.88 0 0 0-1.509-.464 9.389 9.389 0 0 1-1.541-.011 6.312 6.312 0 0 1-4.991-8.79c.3-.654.728-.739 1.245-.222.981.981 1.963 1.963 2.944 2.934.084.084.2.211.306.211.559.021 1.119.011 1.7.011 0-.507-.021-.95.011-1.4a.8.8 0 0 0-.264-.654c-.992-.971-1.963-1.952-2.944-2.934-.454-.464-.369-.929.222-1.182a6.329 6.329 0 0 1 8.86 6.415 2.092 2.092 0 0 0 .623 1.794c.981.971 1.963 1.963 2.944 2.934a2.022 2.022 0 0 0 .232.19 10.158 10.158 0 1 0-4.524 4.503zM13.086 16.684c-.042.116-.063.158-.084.211a5.067 5.067 0 0 0 5.361 6.11 3.519 3.519 0 0 1 3.041 1.087q5.825 5.841 11.661 11.671c.127.127.264.264.4.38a1.9 1.9 0 0 0 2.425-2.926l-6.522-6.522c-1.794-1.794-3.577-3.588-5.371-5.371a3.277 3.277 0 0 1-1.024-2.828 5.056 5.056 0 0 0-3.7-5.424 4.287 4.287 0 0 0-2.6.063c.074.116.211.169.3.264.781.77 1.562 1.53 2.311 2.332a1.26 1.26 0 0 1 .317.76c.042.791.021 1.583.011 2.374 0 .549-.232.77-.77.77-.749 0-1.509-.021-2.258.011a1.213 1.213 0 0 1-.971-.412c-.809-.851-1.662-1.685-2.527-2.55z"/>
    <path data-name="Path 12237" d="M24.788 24.117a3.9 3.9 0 0 1 .549.338q3.72 3.7 7.44 7.429a.655.655 0 0 1 .095.981c-.274.285-.654.253-1-.095l-7.408-7.408a.643.643 0 0 1-.2-.813c.102-.172.334-.278.524-.432z"/>
    <path data-name="Path 12238" d="M23.026 23.659a1.489 1.489 0 0 1-1.087-1.108.606.606 0 0 1 .886-.528 2.519 2.519 0 0 1 .76.77.615.615 0 0 1-.559.866z"/>
    <path data-name="Path 12239" d="M35.288 34.676a.611.611 0 0 1-.9.538 2.413 2.413 0 0 1-.718-.707.618.618 0 0 1 .517-.918 1.492 1.492 0 0 1 1.101 1.087z"/>
</svg>
