<svg xmlns="http://www.w3.org/2000/svg" width="38" height="37.991" viewBox="0 0 38 37.991">
    <path data-name="Path 12208" d="M6.34 3.8c0-.485-.011-.907 0-1.329a2.533 2.533 0 0 1 5.064 0c.011.422 0 .844 0 1.3h5.064V2.65a2.54 2.54 0 1 1 5.074 0v1.118h5.064c0-.433-.011-.876 0-1.308A2.52 2.52 0 0 1 30.172.234a2.459 2.459 0 0 1 1.488 2.2c.021.433 0 .865 0 1.361h.475a30.9 30.9 0 0 1 3.281.084 3.02 3.02 0 0 1 2.574 3.017q.016 8.213.011 16.426c0 .454-.264.749-.644.738s-.622-.3-.622-.76V12.693H1.277v19.369a1.929 1.929 0 0 0 2.12 2.142h17.175a2.414 2.414 0 0 1 .39.011.61.61 0 0 1 .559.612.625.625 0 0 1-.58.644 3.033 3.033 0 0 1-.316.011H3.334A3.159 3.159 0 0 1 0 32.159V7.144a3.159 3.159 0 0 1 3.334-3.319C4.325 3.8 5.307 3.8 6.34 3.8zm5.064 1.277v1.139a2.534 2.534 0 1 1-5.064 0v-1.15H3.281a1.9 1.9 0 0 0-2 2.015v3.956a3.008 3.008 0 0 0 .021.327h35.422c0-1.509.011-2.986 0-4.463a1.81 1.81 0 0 0-1.625-1.8c-1.129-.074-2.258-.021-3.429-.021v1.192a2.533 2.533 0 1 1-5.064-.011V5.076h-5.063c0 .454.011.865 0 1.287a2.527 2.527 0 0 1-5.053-.021c-.021-.433 0-.855 0-1.287-1.741.021-3.387.021-5.086.021zm-3.8-.686v1.857a1.268 1.268 0 1 0 2.532.011c.011-1.224.011-2.448 0-3.682a1.268 1.268 0 1 0-2.532.011c-.008.621.002 1.212.002 1.802zm10.128.011v1.857a1.263 1.263 0 1 0 2.521.011c.011-1.224.011-2.448 0-3.682a1.262 1.262 0 1 0-2.521-.011c-.008.611.002 1.212.002 1.824zm10.128.011v1.888a1.261 1.261 0 1 0 2.521-.011c.011-1.234.011-2.479 0-3.713a1.262 1.262 0 1 0-2.521.011c-.009.61.002 1.212.002 1.824z"/>
    <path data-name="Path 12209" d="M43.074 60.766a8.229 8.229 0 1 1 8.2-8.26 8.224 8.224 0 0 1-8.2 8.26zm6.931-8.218a6.963 6.963 0 1 0-6.942 6.963 6.977 6.977 0 0 0 6.943-6.963z" transform="translate(-13.282 -22.775)" style="fill:#226816"/>
    <path data-name="Path 12210" d="M7.585 20.268c-.411 0-.812.011-1.224 0a1.255 1.255 0 0 1-1.287-1.266q-.016-.949 0-1.9a1.239 1.239 0 0 1 1.255-1.255q1.266-.016 2.532 0a1.263 1.263 0 0 1 1.277 1.288c.011.622.011 1.245 0 1.857a1.263 1.263 0 0 1-1.277 1.287c-.432-.011-.854-.011-1.276-.011zm1.255-1.287v-1.847H6.362v1.846z"/>
    <path data-name="Path 12211" d="M15.234 15.837c.411 0 .823-.011 1.224 0a1.261 1.261 0 0 1 1.266 1.255c.011.644.011 1.3 0 1.941a1.245 1.245 0 0 1-1.245 1.234c-.855.011-1.709.011-2.574 0a1.252 1.252 0 0 1-1.245-1.234 30.903 30.903 0 0 1 0-1.973 1.244 1.244 0 0 1 1.224-1.213c.453-.031.907-.01 1.35-.01zm-1.277 1.277v1.867h2.479v-1.868z"/>
    <path data-name="Path 12212" d="M22.83 15.825c.411 0 .823-.011 1.224 0a1.261 1.261 0 0 1 1.264 1.257c.011.644.011 1.3 0 1.941a1.243 1.243 0 0 1-1.234 1.234 69.02 69.02 0 0 1-2.574 0 1.252 1.252 0 0 1-1.245-1.266q-.016-.949 0-1.9a1.245 1.245 0 0 1 1.253-1.254c.447-.012.879-.012 1.312-.012zm1.213 3.154v-1.854h-2.479v1.857z"/>
    <path data-name="Path 12213" d="M30.383 20.268c-.411 0-.812.011-1.224 0a1.255 1.255 0 0 1-1.287-1.266q-.016-.949 0-1.9a1.239 1.239 0 0 1 1.255-1.255q1.266-.016 2.532 0a1.263 1.263 0 0 1 1.277 1.287c.011.622.011 1.245 0 1.857a1.248 1.248 0 0 1-1.277 1.277zm-1.245-1.3h2.5v-1.843h-2.5z"/>
    <path data-name="Path 12214" d="M7.638 21.534c.411 0 .823-.011 1.224 0a1.261 1.261 0 0 1 1.266 1.255c.011.644.011 1.3 0 1.941a1.245 1.245 0 0 1-1.245 1.234c-.855.011-1.709.011-2.574 0a1.245 1.245 0 0 1-1.245-1.234 39.25 39.25 0 0 1 0-1.941 1.247 1.247 0 0 1 1.266-1.255c.443-.009.876 0 1.308 0zm1.2 3.144v-1.853H6.362v1.857z"/>
    <path data-name="Path 12215" d="M15.192 21.534c.422 0 .844-.011 1.266 0a1.263 1.263 0 0 1 1.276 1.291c.011.622.011 1.245 0 1.857a1.257 1.257 0 0 1-1.276 1.283q-1.266.016-2.532 0a1.261 1.261 0 0 1-1.255-1.266q-.016-.949 0-1.9a1.254 1.254 0 0 1 1.255-1.266c.422-.008.844.001 1.266.001zm1.255 3.144v-1.853h-2.479v1.857z"/>
    <path data-name="Path 12216" d="M7.596 31.661c-.422 0-.844.011-1.266 0a1.254 1.254 0 0 1-1.255-1.266q-.016-.949 0-1.9a1.248 1.248 0 0 1 1.287-1.266 93.945 93.945 0 0 1 2.49 0 1.248 1.248 0 0 1 1.277 1.277c.011.622.011 1.245 0 1.857a1.252 1.252 0 0 1-1.311 1.288c-.41.01-.811.01-1.222.01zm-1.255-1.287h2.5v-1.849h-2.5z"/>
    <path data-name="Path 12217" d="M15.213 31.661c-.422 0-.844.011-1.266 0a1.263 1.263 0 0 1-1.277-1.287 52.253 52.253 0 0 1 0-1.857 1.257 1.257 0 0 1 1.277-1.287q1.266-.016 2.532 0a1.247 1.247 0 0 1 1.255 1.266q.016.949 0 1.9a1.248 1.248 0 0 1-1.287 1.266c-.422.01-.829-.001-1.234-.001zm-1.255-3.154v1.867h2.479v-1.867z"/>
    <path data-name="Path 12218" d="M21.543 22.8v1.867c.074.032.148.053.211.084a.587.587 0 0 1 .369.738.613.613 0 0 1-.686.475 1.244 1.244 0 0 1-1.171-1.182q-.032-1.029 0-2.057a1.219 1.219 0 0 1 1.16-1.182 42.722 42.722 0 0 1 2.606 0 .628.628 0 1 1-.011 1.255z"/>
    <path data-name="Path 12219" d="M50.333 52.548a7.29 7.29 0 1 1-7.248-7.3 7.305 7.305 0 0 1 7.248 7.3zm-8.6 2.384c-.8-.8-1.54-1.551-2.289-2.289a.654.654 0 0 0-1.013-.053.664.664 0 0 0 .084.992c.844.855 1.7 1.7 2.542 2.542.517.517.791.517 1.319-.011Q45 53.5 47.611 50.871a1.474 1.474 0 0 0 .285-.348.626.626 0 0 0-.506-.939 1.149 1.149 0 0 0-.675.316c-1.234 1.2-2.448 2.426-3.661 3.65-.423.45-.854.908-1.319 1.382z" transform="translate(-13.282 -22.775)" style="fill:#226816"/>
</svg>
