<svg xmlns="http://www.w3.org/2000/svg" width="15" height="15" viewBox="0 0 15 15">
    <path data-name="Rectangle 1047" style="fill:none" d="M0 0h15v15H0z"/>
    <path data-name="Path 12303" d="M12.806 11.122a6.112 6.112 0 0 0-.7-2.445A2.968 2.968 0 0 0 9.845 7.1a2.183 2.183 0 0 0-.31-.024 1.323 1.323 0 0 0-.81.253 5.473 5.473 0 0 1-.407.26l-.095.057a3.448 3.448 0 0 1-1.787.542 3.455 3.455 0 0 1-1.785-.539C4.574 7.6 4.5 7.55 4.42 7.5c-.135-.086-.274-.176-.421-.254a1.227 1.227 0 0 0-.531-.172h-.061a2.975 2.975 0 0 0-1.391.341 3.233 3.233 0 0 0-1.475 1.73 7.8 7.8 0 0 0-.531 3.382 2.491 2.491 0 0 0 1.911 2.357c.125.035.252.059.374.082l.162.034H10.4l.025-.007.038-.013.025-.008a2.686 2.686 0 0 0 1.7-.814 2.54 2.54 0 0 0 .676-1.733 11.784 11.784 0 0 0-.057-1.3zm-5.249 2.653H2.861a1.844 1.844 0 0 1-.962-.213 1.229 1.229 0 0 1-.645-1.1 6.951 6.951 0 0 1 .42-2.8 2.566 2.566 0 0 1 .582-.91A1.612 1.612 0 0 1 3.364 8.3a.49.49 0 0 1 .061.033c.108.064.217.132.323.2a6.806 6.806 0 0 0 .678.392 4.645 4.645 0 0 0 2.016.486 4.673 4.673 0 0 0 2.458-.74c.07-.042.139-.086.207-.13.112-.071.228-.145.344-.211a.206.206 0 0 1 .1-.025h.007a1.71 1.71 0 0 1 1.467.988 4.907 4.907 0 0 1 .537 1.884 10.518 10.518 0 0 1 .061 1.121 1.354 1.354 0 0 1-1.471 1.471c-.435 0-.9.007-1.469.007z" transform="translate(1.067)" style="fill:#343f53"/>
    <path data-name="Path 12304" d="M9.022 1.08a3.869 3.869 0 0 0-5.406.043 3.635 3.635 0 0 0-1.07 2.6 3.753 3.753 0 0 0 3.771 3.7h.032a3.861 3.861 0 0 0 2.685-1.099 3.657 3.657 0 0 0-.012-5.244zm-2.681.146a2.57 2.57 0 0 1 1.807.727 2.432 2.432 0 0 1 .741 1.756 2.549 2.549 0 0 1-5.1 0A2.519 2.519 0 0 1 6.34 1.226z" transform="translate(1.067)" style="fill:#343f53"/>
</svg>
